<svg version="1.0" xmlns="http://www.w3.org/2000/svg"
 width="100px" height="100px" viewBox="0 0 800.000000 661.000000"
 preserveAspectRatio="xMidYMid meet">

<g id="logo-deadpool">
<path d="M4532 6597 c-36 -20 -202 -140 -261 -188 -165 -135 -343 -399 -455
-677 -116 -288 -193 -602 -197 -802 -2 -146 -29 -320 -60 -386 -16 -34 -29
-67 -29 -72 0 -6 -17 -36 -39 -66 -21 -31 -48 -82 -60 -113 -12 -32 -33 -70
-46 -86 -22 -25 -101 -67 -127 -67 -14 0 -38 27 -38 43 0 24 -49 127 -61 127
-6 0 -9 6 -6 13 2 6 -10 41 -28 77 -18 36 -43 90 -55 120 -12 30 -28 62 -36
71 -8 8 -14 21 -14 28 0 16 -51 115 -61 119 -5 2 -9 12 -9 22 0 27 -48 130
-61 130 -6 0 -9 6 -6 13 6 16 -50 127 -64 127 -6 0 -9 6 -6 14 7 17 -40 117
-62 133 -9 6 -13 14 -9 18 4 4 -20 60 -53 125 -32 66 -59 123 -59 128 0 6 -7
13 -16 16 -8 3 -13 10 -9 16 6 10 -42 113 -56 118 -5 2 -9 10 -9 18 0 12 -94
210 -106 223 -9 10 -116 -32 -141 -55 -15 -14 -32 -23 -39 -20 -6 2 -26 -8
-44 -22 l-32 -27 142 -290 c310 -634 647 -1361 635 -1373 -3 -3 -35 -18 -72
-34 -61 -26 -82 -29 -198 -33 -145 -4 -417 -50 -544 -92 -178 -58 -473 -278
-640 -476 -121 -144 -225 -329 -337 -599 -52 -126 -54 -129 -162 -245 -195
-209 -250 -285 -358 -503 -45 -91 -107 -199 -138 -240 -30 -41 -63 -91 -73
-110 -10 -19 -35 -54 -55 -78 -20 -24 -51 -78 -69 -120 -17 -42 -42 -98 -55
-124 -22 -43 -23 -54 -18 -156 5 -88 3 -120 -11 -161 -46 -140 70 -437 197
-502 27 -14 55 -19 91 -18 32 2 79 -6 121 -19 37 -12 76 -22 86 -22 10 0 23
-7 30 -15 7 -8 29 -15 49 -15 65 -1 433 81 576 127 239 77 335 135 521 312 66
64 156 150 200 191 44 41 113 112 153 157 40 46 76 83 80 83 10 0 64 -196 101
-370 34 -160 65 -369 75 -500 3 -47 8 -100 11 -117 l5 -33 1569 0 1569 0 5 33
c2 17 11 106 20 197 15 163 54 400 65 400 4 0 28 -37 55 -82 125 -211 263
-370 482 -555 45 -37 122 -105 171 -149 91 -82 127 -104 144 -87 6 6 26 5 52
-3 166 -50 297 -58 356 -22 103 63 166 135 232 267 33 66 43 101 49 160 7 68
32 148 77 250 13 28 13 46 4 105 -6 39 -16 112 -22 161 -6 50 -21 117 -33 150
-13 33 -35 101 -51 150 -32 105 -44 131 -82 175 -37 45 -95 217 -81 243 6 13
6 27 -1 45 -5 15 -15 46 -21 70 -14 56 -108 261 -154 337 -94 156 -93 154
-100 407 -5 185 -11 252 -31 357 -61 314 -213 573 -420 717 -146 102 -391 215
-538 249 -73 16 -175 51 -192 65 -6 5 -29 12 -50 16 -44 7 -85 21 -85 29 0 13
501 625 853 1043 48 56 87 106 87 110 0 4 -14 23 -31 42 -17 19 -27 28 -23 20
5 -10 0 -9 -14 4 -12 11 -20 21 -17 24 12 12 -118 97 -134 88 -13 -8 -151
-172 -151 -180 0 -3 -17 -21 -38 -40 -21 -19 -44 -46 -51 -60 -8 -13 -36 -48
-62 -76 -27 -29 -49 -56 -49 -60 0 -5 -22 -32 -50 -60 -27 -28 -50 -55 -50
-60 0 -5 -24 -34 -54 -66 -31 -32 -52 -62 -49 -70 3 -8 -1 -14 -10 -14 -16 0
-87 -81 -87 -99 0 -7 -7 -14 -15 -17 -16 -7 -86 -89 -89 -107 -2 -7 -26 -36
-54 -66 -29 -29 -52 -56 -52 -60 0 -4 -22 -31 -50 -61 -27 -30 -50 -57 -50
-62 0 -4 -10 -17 -22 -30 -13 -13 -35 -38 -50 -56 l-27 -32 -98 33 c-134 47
-203 77 -203 91 0 6 4 17 9 24 5 8 4 31 -2 53 l-10 39 134 138 c155 158 246
284 385 529 209 365 269 515 296 729 18 148 14 192 -21 223 -16 14 -53 69 -81
121 -91 164 -190 275 -326 366 -170 113 -293 152 -504 160 -80 3 -157 9 -171
14 -17 5 -34 4 -47 -3z m-213 -1163 c32 -16 61 -40 76 -63 60 -91 34 -125 -49
-62 -28 21 -76 55 -107 74 -54 34 -75 58 -62 71 15 15 93 4 142 -20z m688
-415 c52 -32 84 -112 50 -125 -11 -4 -175 90 -200 115 -5 5 0 16 9 26 22 22
92 14 141 -16z m-529 -64 c-3 -3 -9 2 -12 12 -6 14 -5 15 5 6 7 -7 10 -15 7
-18z m-858 -1379 c0 -2 -9 -6 -20 -9 -11 -3 -18 -1 -14 4 5 9 34 13 34 5z
m1478 -110 c-2 0 -14 -10 -27 -21 -16 -13 -21 -15 -16 -5 16 29 27 40 37 34 5
-3 8 -7 6 -8z m43 -33 c9 -11 10 -14 2 -9 -7 4 -22 2 -33 -4 -19 -10 -20 -10
-8 9 16 25 22 26 39 4z m-1861 -98 l-8 -40 -1 36 c0 20 2 39 6 42 11 11 11 4
3 -38z m-40 -26 c0 -17 -4 -28 -10 -24 -5 3 -8 16 -6 28 6 28 5 27 11 27 3 0
5 -14 5 -31z m-654 -676 c-10 -10 -19 5 -10 18 6 11 8 11 12 0 2 -7 1 -15 -2
-18z m3099 -33 c3 -5 -1 -10 -9 -10 -9 0 -16 5 -16 10 0 6 4 10 9 10 6 0 13
-4 16 -10z m-3887 -35 c-3 -3 -9 2 -12 12 -6 14 -5 15 5 6 7 -7 10 -15 7 -18z
m713 -248 c14 -40 33 -88 42 -109 15 -32 15 -37 2 -42 -23 -8 -76 115 -79 181
-1 29 0 50 3 47 3 -3 17 -38 32 -77z m3809 40 c0 -2 -10 -12 -22 -23 l-23 -19
19 23 c18 21 26 27 26 19z m-3836 -135 l25 -49 -21 -17 c-11 -10 -22 -15 -25
-12 -3 2 4 10 16 17 16 10 18 16 8 27 -12 15 -37 82 -31 82 2 0 15 -22 28 -48z
m3196 -6 c-17 -25 -35 -46 -40 -46 -6 0 -10 -5 -10 -12 0 -19 -31 -47 -46 -41
-8 3 -11 10 -8 15 4 6 10 5 16 -3 7 -11 8 -10 4 4 -10 32 89 148 112 131 2 -1
-10 -23 -28 -48z m-4439 -34 c-7 -2 -18 1 -23 6 -8 8 -4 9 13 5 13 -4 18 -8
10 -11z m-5 -23 c3 -5 2 -9 -1 -9 -9 0 -65 30 -65 35 0 7 60 -16 66 -26z
m1219 -39 c3 -5 1 -10 -4 -10 -6 0 -11 5 -11 10 0 6 2 10 4 10 3 0 8 -4 11
-10z m-1555 -200 c18 -12 2 -12 -25 0 -13 6 -15 9 -5 9 8 0 22 -4 30 -9z m-56
-19 c16 -6 11 -10 -26 -19 -26 -7 -59 -12 -75 -11 -27 1 -26 1 12 20 43 20 59
22 89 10z m5724 2 c-10 -2 -26 -2 -35 0 -10 3 -2 5 17 5 19 0 27 -2 18 -5z
m372 -333 c0 -5 -2 -10 -4 -10 -3 0 -8 5 -11 10 -3 6 -1 10 4 10 6 0 11 -4 11
-10z m40 -24 c-7 -7 -13 -7 -20 0 -6 6 -3 10 10 10 13 0 16 -4 10 -10z"/>
</g>
</svg>
